<?xml version="1.0" encoding="utf-8" ?>
<!DOCTYPE svg PUBLIC "-//W3C//DTD SVG 1.1//EN" "http://www.w3.org/Graphics/SVG/1.1/DTD/svg11.dtd">
<svg height="1444" version="1.1" width="1428" xmlns="http://www.w3.org/2000/svg">
<polygon fill="#ffffff" points="14,14 1364,14 1364,37 1413,37 1413,1429 14,1429 14,14" stroke="#ffffff" stroke-width="1"/>
<rect fill="none" height="23" stroke="#000000" stroke-width="1" width="1350" x="14" y="14"/>
<text font-family="Dialog" font-size="12" x="19" y="27">
br.ufac.si.medcos.entidades</text>
<rect fill="none" height="1392" stroke="#000000" stroke-width="1" width="1399" x="14" y="37"/>
<rect fill="#ffffff" height="364" stroke="#ffffff" stroke-width="1" width="212" x="734" y="502"/>
<rect fill="none" height="364" stroke="#000000" stroke-width="1" width="212" x="734" y="502"/>
<text font-family="Dialog" font-size="12" x="798" y="515">
+ Funcionário</text>
<rect fill="#000000" height="1" stroke="#000000" stroke-width="1" width="212" x="734" y="525"/>
<text font-family="Dialog" font-size="12" x="738" y="539">
-id : Integer</text>
<text font-family="Dialog" font-size="12" x="738" y="555">
-nome : String</text>
<text font-family="Dialog" font-size="12" x="738" y="571">
-cpf : String</text>
<text font-family="Dialog" font-size="12" x="738" y="587">
-dataNascimento : Date</text>
<text font-family="Dialog" font-size="12" x="738" y="603">
-funcao : String</text>
<text font-family="Dialog" font-size="12" x="738" y="619">
-ativo : Boolean</text>
<text font-family="Dialog" font-size="12" x="738" y="635">
-permissao : Integer</text>
<rect fill="#000000" height="1" stroke="#000000" stroke-width="1" width="212" x="734" y="655"/>
<text font-family="Dialog" font-size="12" x="738" y="669">
-getId() : Integer</text>
<text font-family="Dialog" font-size="12" x="738" y="685">
-getNome() : String</text>
<text font-family="Dialog" font-size="12" x="738" y="701">
-getCpf() : String</text>
<text font-family="Dialog" font-size="12" x="738" y="717">
-getDataNascimento() : Date</text>
<text font-family="Dialog" font-size="12" x="738" y="733">
-getFuncao() : String</text>
<text font-family="Dialog" font-size="12" x="738" y="749">
-isAtivo() : Boolean</text>
<text font-family="Dialog" font-size="12" x="738" y="765">
-getPermissao() : Integer</text>
<text font-family="Dialog" font-size="12" x="738" y="781">
-setId(id) : void</text>
<text font-family="Dialog" font-size="12" x="738" y="797">
-setNome(nome) : void</text>
<text font-family="Dialog" font-size="12" x="738" y="813">
-setDataNascimento(data) : void</text>
<text font-family="Dialog" font-size="12" x="738" y="829">
-setAtivo(ativo) : void</text>
<text font-family="Dialog" font-size="12" x="738" y="845">
-setPermissao(permissao) : void</text>
<rect fill="#ffffff" height="500" stroke="#ffffff" stroke-width="1" width="212" x="358" y="54"/>
<rect fill="none" height="500" stroke="#000000" stroke-width="1" width="212" x="358" y="54"/>
<text font-family="Dialog" font-size="12" x="431" y="67">
+ Paciente</text>
<rect fill="#000000" height="1" stroke="#000000" stroke-width="1" width="212" x="358" y="77"/>
<text font-family="Dialog" font-size="12" x="362" y="91">
-id : Integer</text>
<text font-family="Dialog" font-size="12" x="362" y="107">
-nome : String</text>
<text font-family="Dialog" font-size="12" x="362" y="123">
-cpf : String</text>
<text font-family="Dialog" font-size="12" x="362" y="139">
-dataNascimento : Date</text>
<text font-family="Dialog" font-size="12" x="362" y="155">
-estadoCivil : String</text>
<text font-family="Dialog" font-size="12" x="362" y="171">
-fone : String</text>
<text font-family="Dialog" font-size="12" x="362" y="187">
-email : String</text>
<text font-family="Dialog" font-size="12" x="362" y="203">
-profissao : String</text>
<text font-family="Dialog" font-size="12" x="362" y="219">
-obs : String</text>
<rect fill="#000000" height="1" stroke="#000000" stroke-width="1" width="212" x="358" y="243"/>
<text font-family="Dialog" font-size="12" x="362" y="257">
-getId() : Integer</text>
<text font-family="Dialog" font-size="12" x="362" y="273">
-getNome() : String</text>
<text font-family="Dialog" font-size="12" x="362" y="289">
-getCpf() : String</text>
<text font-family="Dialog" font-size="12" x="362" y="305">
-getDataNascimento() : Date</text>
<text font-family="Dialog" font-size="12" x="362" y="321">
-getEstadoCivil() : String</text>
<text font-family="Dialog" font-size="12" x="362" y="337">
-getFone() : String</text>
<text font-family="Dialog" font-size="12" x="362" y="353">
-getEmail() : String</text>
<text font-family="Dialog" font-size="12" x="362" y="369">
-getProfissao() : String</text>
<text font-family="Dialog" font-size="12" x="362" y="385">
-getObs() : String</text>
<text font-family="Dialog" font-size="12" x="362" y="401">
-setId(id) : void</text>
<text font-family="Dialog" font-size="12" x="362" y="417">
-setNome(nome) : void</text>
<text font-family="Dialog" font-size="12" x="362" y="433">
-setCpf(cpf) : void</text>
<text font-family="Dialog" font-size="12" x="362" y="449">
-setDataNascimento(data) : void</text>
<text font-family="Dialog" font-size="12" x="362" y="465">
-setEstadoCivil(estado) : void</text>
<text font-family="Dialog" font-size="12" x="362" y="481">
-setFone(fone) : void</text>
<text font-family="Dialog" font-size="12" x="362" y="497">
-setEmail(email) : void</text>
<text font-family="Dialog" font-size="12" x="362" y="513">
-setProfissao(profissao) : void</text>
<text font-family="Dialog" font-size="12" x="362" y="529">
-setObs(obs) : void</text>
<rect fill="#ffffff" height="248" stroke="#ffffff" stroke-width="1" width="197" x="358" y="654"/>
<rect fill="none" height="248" stroke="#000000" stroke-width="1" width="197" x="358" y="654"/>
<text font-family="Dialog" font-size="12" x="423" y="667">
+ Consulta</text>
<rect fill="#000000" height="1" stroke="#000000" stroke-width="1" width="197" x="358" y="677"/>
<text font-family="Dialog" font-size="12" x="362" y="691">
-id : Integer</text>
<text font-family="Dialog" font-size="12" x="362" y="707">
-sintomas : String</text>
<text font-family="Dialog" font-size="12" x="362" y="723">
-dataHora : Date</text>
<text font-family="Dialog" font-size="12" x="362" y="739">
-obs : String</text>
<text font-family="Dialog" font-size="12" x="362" y="755">
-status : String</text>
<rect fill="#000000" height="1" stroke="#000000" stroke-width="1" width="197" x="358" y="765"/>
<text font-family="Dialog" font-size="12" x="362" y="779">
-getId() : Integer</text>
<text font-family="Dialog" font-size="12" x="362" y="795">
-getSintomas() : String</text>
<text font-family="Dialog" font-size="12" x="362" y="811">
-getDataHora() : Date</text>
<text font-family="Dialog" font-size="12" x="362" y="827">
-getObs() : String</text>
<text font-family="Dialog" font-size="12" x="362" y="843">
-setId(id) : void</text>
<text font-family="Dialog" font-size="12" x="362" y="859">
-setSintomas(sintomas) : void</text>
<text font-family="Dialog" font-size="12" x="362" y="875">
-setDataHora(datahora) : void</text>
<text font-family="Dialog" font-size="12" x="362" y="891">
-setObs(obs) : void</text>
<polyline fill="none" points="454,654 454,553" stroke="#000000" stroke-width="1"/>
<text font-family="Dialog" font-size="12" x="360" y="609">
 é atendido em</text>
<text font-family="Dialog" font-size="12" x="425" y="644">
0..*</text>
<text font-family="Dialog" font-size="12" x="461" y="642">
-consultas</text>
<text font-family="Dialog" font-size="12" x="433" y="574">
1</text>
<text font-family="Dialog" font-size="12" x="457" y="577">
-paciente</text>
<rect fill="#ffffff" height="248" stroke="#ffffff" stroke-width="1" width="238" x="1102" y="46"/>
<rect fill="none" height="248" stroke="#000000" stroke-width="1" width="238" x="1102" y="46"/>
<text font-family="Dialog" font-size="12" x="1186" y="59">
+ Pergunta</text>
<rect fill="#000000" height="1" stroke="#000000" stroke-width="1" width="238" x="1102" y="69"/>
<text font-family="Dialog" font-size="12" x="1106" y="83">
-id : Integer</text>
<text font-family="Dialog" font-size="12" x="1106" y="99">
-descricao : String</text>
<text font-family="Dialog" font-size="12" x="1106" y="115">
-tipo : Integer</text>
<rect fill="#000000" height="1" stroke="#000000" stroke-width="1" width="238" x="1102" y="141"/>
<text font-family="Dialog" font-size="12" x="1106" y="155">
-getId() : Integer</text>
<text font-family="Dialog" font-size="12" x="1106" y="171">
-getDescricao() : String</text>
<text font-family="Dialog" font-size="12" x="1106" y="187">
-getQuestionario() : String</text>
<text font-family="Dialog" font-size="12" x="1106" y="203">
-getTipo() : Integer</text>
<text font-family="Dialog" font-size="12" x="1106" y="219">
-setId(id) : void</text>
<text font-family="Dialog" font-size="12" x="1106" y="235">
-setDescricao(descricao) : void</text>
<text font-family="Dialog" font-size="12" x="1106" y="251">
-setQuestionario(questionario) : void</text>
<text font-family="Dialog" font-size="12" x="1106" y="267">
-setTipo(tipo) : void</text>
<rect fill="#ffffff" height="143" stroke="#ffffff" stroke-width="1" width="200" x="707" y="46"/>
<rect fill="none" height="143" stroke="#000000" stroke-width="1" width="200" x="707" y="46"/>
<text font-family="Dialog" font-size="12" x="773" y="59">
+ Resposta</text>
<rect fill="#000000" height="1" stroke="#000000" stroke-width="1" width="200" x="707" y="69"/>
<text font-family="Dialog" font-size="12" x="711" y="83">
-id : Integer</text>
<text font-family="Dialog" font-size="12" x="711" y="99">
-conteudo : String</text>
<rect fill="#000000" height="1" stroke="#000000" stroke-width="1" width="200" x="707" y="112"/>
<text font-family="Dialog" font-size="12" x="711" y="126">
-getId() : Integer</text>
<text font-family="Dialog" font-size="12" x="711" y="142">
-getConteudo() : String</text>
<text font-family="Dialog" font-size="12" x="711" y="158">
-setId(id) : void</text>
<text font-family="Dialog" font-size="12" x="711" y="174">
-setConteudo(conteudo) : void</text>
<rect fill="#ffffff" height="240" stroke="#ffffff" stroke-width="1" width="192" x="358" y="974"/>
<rect fill="none" height="240" stroke="#000000" stroke-width="1" width="192" x="358" y="974"/>
<text font-family="Dialog" font-size="12" x="405" y="987">
+ Procedimento</text>
<rect fill="#000000" height="1" stroke="#000000" stroke-width="1" width="192" x="358" y="997"/>
<text font-family="Dialog" font-size="12" x="362" y="1011">
-id : Integer</text>
<text font-family="Dialog" font-size="12" x="362" y="1027">
-nome : String</text>
<text font-family="Dialog" font-size="12" x="362" y="1043">
-descricao : String</text>
<text font-family="Dialog" font-size="12" x="362" y="1059">
-tipo : String</text>
<rect fill="#000000" height="1" stroke="#000000" stroke-width="1" width="192" x="358" y="1073"/>
<text font-family="Dialog" font-size="12" x="362" y="1087">
-getId() : Integer</text>
<text font-family="Dialog" font-size="12" x="362" y="1103">
-getDescricao() : String</text>
<text font-family="Dialog" font-size="12" x="362" y="1119">
-getTipo() : String</text>
<text font-family="Dialog" font-size="12" x="362" y="1135">
-setId(id) : void</text>
<text font-family="Dialog" font-size="12" x="362" y="1151">
-setDescricao(desc) : void</text>
<text font-family="Dialog" font-size="12" x="362" y="1167">
-setTipo(tipo) : void</text>
<text font-family="Dialog" font-size="12" x="362" y="1183">
-getNome() : String</text>
<text font-family="Dialog" font-size="12" x="362" y="1199">
-setNome(nome) : String</text>
<polyline fill="none" points="461,901 461,974" stroke="#000000" stroke-width="1"/>
<polygon fill="#000000" points="461,901 466,911 461,921 456,911" stroke="#000000" stroke-width="1"/>
<polygon fill="none" points="461,901 466,911 461,921 456,911" stroke="#000000" stroke-width="1"/>
<text font-family="Dialog" font-size="12" x="464" y="944">
 contém</text>
<text font-family="Dialog" font-size="12" x="475" y="918">
1</text>
<text font-family="Dialog" font-size="12" x="404" y="931">
-consulta</text>
<text font-family="Dialog" font-size="12" x="468" y="970">
0..*</text>
<text font-family="Dialog" font-size="12" x="362" y="965">
-procedimentos</text>
<rect fill="#ffffff" height="398" stroke="#ffffff" stroke-width="1" width="170" x="46" y="46"/>
<rect fill="none" height="398" stroke="#000000" stroke-width="1" width="170" x="46" y="46"/>
<text font-family="Dialog" font-size="12" x="95" y="59">
+ Endereço</text>
<rect fill="#000000" height="1" stroke="#000000" stroke-width="1" width="170" x="46" y="69"/>
<text font-family="Dialog" font-size="12" x="50" y="83">
-id : Integer</text>
<text font-family="Dialog" font-size="12" x="50" y="99">
-logradouro : String</text>
<text font-family="Dialog" font-size="12" x="50" y="115">
-bairro : String</text>
<text font-family="Dialog" font-size="12" x="50" y="131">
-cidade : String</text>
<text font-family="Dialog" font-size="12" x="50" y="147">
-estado : String</text>
<text font-family="Dialog" font-size="12" x="50" y="163">
-cep : String</text>
<text font-family="Dialog" font-size="12" x="50" y="179">
-numero : Integer</text>
<rect fill="#000000" height="1" stroke="#000000" stroke-width="1" width="170" x="46" y="200"/>
<text font-family="Dialog" font-size="12" x="50" y="214">
-getId() : Integer</text>
<text font-family="Dialog" font-size="12" x="50" y="230">
-getLogradouro() : String</text>
<text font-family="Dialog" font-size="12" x="50" y="246">
-getBairro() : String</text>
<text font-family="Dialog" font-size="12" x="50" y="262">
-getCidade() : String</text>
<text font-family="Dialog" font-size="12" x="50" y="278">
-getEstado() : String</text>
<text font-family="Dialog" font-size="12" x="50" y="294">
-getCep() : String</text>
<text font-family="Dialog" font-size="12" x="50" y="310">
-getNumero() : String</text>
<text font-family="Dialog" font-size="12" x="50" y="326">
-setId(id) : void</text>
<text font-family="Dialog" font-size="12" x="50" y="342">
-setLogradouro(log) : void</text>
<text font-family="Dialog" font-size="12" x="50" y="358">
-setBairro(bairro) : void</text>
<text font-family="Dialog" font-size="12" x="50" y="374">
-setCidade(cidade) : void</text>
<text font-family="Dialog" font-size="12" x="50" y="390">
-setEstado(estado) : void</text>
<text font-family="Dialog" font-size="12" x="50" y="406">
-setCep(cep) : void</text>
<text font-family="Dialog" font-size="12" x="50" y="422">
-setNumero(num) : void</text>
<polyline fill="none" points="358,342 215,342" stroke="#000000" stroke-width="1"/>
<line fill="#000000" stroke="#000000" stroke-width="1" x1="227" x2="215" y1="335" y2="342"/>
<line fill="#000000" stroke="#000000" stroke-width="1" x1="227" x2="215" y1="349" y2="342"/>
<text font-family="Dialog" font-size="12" x="243" y="322">
 mora em</text>
<text font-family="Dialog" font-size="12" x="332" y="337">
0..*</text>
<text font-family="Dialog" font-size="12" x="229" y="334">
1</text>
<text font-family="Dialog" font-size="12" x="220" y="360">
-endereco</text>
<rect fill="#ffffff" height="360" stroke="#ffffff" stroke-width="1" width="200" x="1118" y="606"/>
<rect fill="none" height="360" stroke="#000000" stroke-width="1" width="200" x="1118" y="606"/>
<text font-family="Dialog" font-size="12" x="1190" y="619">
+ Médico</text>
<rect fill="#000000" height="1" stroke="#000000" stroke-width="1" width="200" x="1118" y="629"/>
<text font-family="Dialog" font-size="12" x="1122" y="643">
-id : Integer</text>
<text font-family="Dialog" font-size="12" x="1122" y="659">
-nome : String</text>
<text font-family="Dialog" font-size="12" x="1122" y="675">
-cpf : String</text>
<text font-family="Dialog" font-size="12" x="1122" y="691">
-dataNascimento : Date</text>
<text font-family="Dialog" font-size="12" x="1122" y="707">
-ativo : Boolean</text>
<text font-family="Dialog" font-size="12" x="1122" y="723">
-crm : String</text>
<text font-family="Dialog" font-size="12" x="1122" y="739">
-especialidade : String</text>
<rect fill="#000000" height="1" stroke="#000000" stroke-width="1" width="200" x="1118" y="749"/>
<text font-family="Dialog" font-size="12" x="1122" y="763">
+getId() : Integer</text>
<text font-family="Dialog" font-size="12" x="1122" y="779">
+getNome() : String</text>
<text font-family="Dialog" font-size="12" x="1122" y="795">
-getCpf() : String</text>
<text font-family="Dialog" font-size="12" x="1122" y="811">
-getDataNascimento() : Date</text>
<text font-family="Dialog" font-size="12" x="1122" y="827">
-isAtivo() : boolean</text>
<text font-family="Dialog" font-size="12" x="1122" y="843">
-getCrm() : String</text>
<text font-family="Dialog" font-size="12" x="1122" y="859">
-getEspecialidade() : String</text>
<text font-family="Dialog" font-size="12" x="1122" y="875">
-setId(id) : void</text>
<text font-family="Dialog" font-size="12" x="1122" y="891">
-setCpf(cpf) : void</text>
<text font-family="Dialog" font-size="12" x="1122" y="907">
-setDataNascimento(dt) : void</text>
<text font-family="Dialog" font-size="12" x="1122" y="923">
-setAtivo(ativo) : void</text>
<text font-family="Dialog" font-size="12" x="1122" y="939">
-setCrm(crm) : void</text>
<text font-family="Dialog" font-size="12" x="1122" y="955">
-setEspecialidade(esp) : void</text>
<polyline fill="none" points="734,758 554,758" stroke="#000000" stroke-width="1"/>
<line fill="#000000" stroke="#000000" stroke-width="1" x1="566" x2="554" y1="751" y2="758"/>
<line fill="#000000" stroke="#000000" stroke-width="1" x1="566" x2="554" y1="765" y2="758"/>
<text font-family="Dialog" font-size="12" x="601" y="750">
 gerencia</text>
<text font-family="Dialog" font-size="12" x="703" y="753">
1..*</text>
<text font-family="Dialog" font-size="12" x="653" y="780">
-responsavel</text>
<text font-family="Dialog" font-size="12" x="558" y="753">
0..*</text>
<polyline fill="none" points="554,892 1118,892" stroke="#000000" stroke-width="1"/>
<line fill="#000000" stroke="#000000" stroke-width="1" x1="1106" x2="1118" y1="899" y2="892"/>
<line fill="#000000" stroke="#000000" stroke-width="1" x1="1106" x2="1118" y1="885" y2="892"/>
<text font-family="Dialog" font-size="12" x="805" y="882">
 realiza</text>
<text font-family="Dialog" font-size="12" x="568" y="887">
0..*</text>
<text font-family="Dialog" font-size="12" x="1094" y="884">
1</text>
<text font-family="Dialog" font-size="12" x="1063" y="912">
-medico</text>
<rect fill="#ffffff" height="184" stroke="#ffffff" stroke-width="1" width="202" x="742" y="254"/>
<rect fill="none" height="184" stroke="#000000" stroke-width="1" width="202" x="742" y="254"/>
<text font-family="Dialog" font-size="12" x="804" y="267">
+ Anamnese</text>
<rect fill="#000000" height="1" stroke="#000000" stroke-width="1" width="202" x="742" y="277"/>
<text font-family="Dialog" font-size="12" x="746" y="291">
-id : Integer</text>
<text font-family="Dialog" font-size="12" x="746" y="307">
-data : Date</text>
<rect fill="#000000" height="1" stroke="#000000" stroke-width="1" width="202" x="742" y="325"/>
<text font-family="Dialog" font-size="12" x="746" y="339">
-getId() : Integer</text>
<text font-family="Dialog" font-size="12" x="746" y="355">
-getDescricao() : String</text>
<text font-family="Dialog" font-size="12" x="746" y="371">
-getData() : Date</text>
<text font-family="Dialog" font-size="12" x="746" y="387">
-setId(id) : void</text>
<text font-family="Dialog" font-size="12" x="746" y="403">
-setDescricao(descricao) : void</text>
<text font-family="Dialog" font-size="12" x="746" y="419">
-setData(data) : void</text>
<polyline fill="none" points="569,294 742,294" stroke="#000000" stroke-width="1"/>
<text font-family="Dialog" font-size="12" x="621" y="276">
 responde</text>
<text font-family="Dialog" font-size="12" x="580" y="289">
1</text>
<text font-family="Dialog" font-size="12" x="571" y="309">
-paciente</text>
<text font-family="Dialog" font-size="12" x="716" y="289">
0..*</text>
<text font-family="Dialog" font-size="12" x="641" y="310">
-anamneses</text>
<rect fill="#ffffff" height="184" stroke="#ffffff" stroke-width="1" width="202" x="1115" y="366"/>
<rect fill="none" height="184" stroke="#000000" stroke-width="1" width="202" x="1115" y="366"/>
<text font-family="Dialog" font-size="12" x="1191" y="379">
+ Molde</text>
<rect fill="#000000" height="1" stroke="#000000" stroke-width="1" width="202" x="1115" y="389"/>
<text font-family="Dialog" font-size="12" x="1119" y="403">
-id : Integer</text>
<text font-family="Dialog" font-size="12" x="1119" y="419">
-descricao : String</text>
<text font-family="Dialog" font-size="12" x="1119" y="435">
-criacao : Date</text>
<rect fill="#000000" height="1" stroke="#000000" stroke-width="1" width="202" x="1115" y="445"/>
<text font-family="Dialog" font-size="12" x="1119" y="459">
-getId() : Integer</text>
<text font-family="Dialog" font-size="12" x="1119" y="475">
-getDescricao() : String</text>
<text font-family="Dialog" font-size="12" x="1119" y="491">
-getCriacao() : Date</text>
<text font-family="Dialog" font-size="12" x="1119" y="507">
-setId(id) : void</text>
<text font-family="Dialog" font-size="12" x="1119" y="523">
-setDescricao(descricao) : void</text>
<text font-family="Dialog" font-size="12" x="1119" y="539">
-setCriacao(criacao) : void</text>
<polyline fill="none" points="1115,478 843,478 843,437" stroke="#000000" stroke-width="1"/>
<line fill="#000000" stroke="#000000" stroke-width="1" x1="850" x2="843" y1="449" y2="437"/>
<line fill="#000000" stroke="#000000" stroke-width="1" x1="836" x2="843" y1="449" y2="437"/>
<text font-family="Dialog" font-size="12" x="942" y="472">
 usa</text>
<text font-family="Dialog" font-size="12" x="1101" y="472">
1</text>
<text font-family="Dialog" font-size="12" x="1071" y="493">
-molde</text>
<text font-family="Dialog" font-size="12" x="815" y="464">
0..*</text>
<polyline fill="none" points="806,254 806,188" stroke="#000000" stroke-width="1"/>
<polygon fill="#000000" points="806,254 801,244 806,234 811,244" stroke="#000000" stroke-width="1"/>
<polygon fill="none" points="806,254 801,244 806,234 811,244" stroke="#000000" stroke-width="1"/>
<text font-family="Dialog" font-size="12" x="715" y="226">
 compõe</text>
<text font-family="Dialog" font-size="12" x="785" y="237">
1</text>
<text font-family="Dialog" font-size="12" x="778" y="215">
0..*</text>
<text font-family="Dialog" font-size="12" x="809" y="203">
-respostas</text>
<polyline fill="none" points="1102,126 906,126" stroke="#000000" stroke-width="1"/>
<polygon fill="#000000" points="1102,126 1092,131 1082,126 1092,121" stroke="#000000" stroke-width="1"/>
<polygon fill="none" points="1102,126 1092,131 1082,126 1092,121" stroke="#000000" stroke-width="1"/>
<text font-family="Dialog" font-size="12" x="968" y="117">
 possui</text>
<text font-family="Dialog" font-size="12" x="1082" y="115">
1</text>
<text font-family="Dialog" font-size="12" x="1038" y="146">
-pergunta</text>
<text font-family="Dialog" font-size="12" x="917" y="121">
1</text>
<polyline fill="none" points="1212,366 1212,293" stroke="#000000" stroke-width="1"/>
<polygon fill="#000000" points="1212,366 1207,356 1212,346 1217,356" stroke="#000000" stroke-width="1"/>
<polygon fill="none" points="1212,366 1207,356 1212,346 1217,356" stroke="#000000" stroke-width="1"/>
<text font-family="Dialog" font-size="12" x="1122" y="335">
 compõe</text>
<text font-family="Dialog" font-size="12" x="1183" y="360">
0..*</text>
<text font-family="Dialog" font-size="12" x="1183" y="307">
1..*</text>
<text font-family="Dialog" font-size="12" x="1214" y="329">
-perguntas</text>
<polyline fill="none" points="945,582 1206,582 1206,549" stroke="#000000" stroke-width="1"/>
<line fill="#000000" stroke="#000000" stroke-width="1" x1="1213" x2="1206" y1="561" y2="549"/>
<line fill="#000000" stroke="#000000" stroke-width="1" x1="1199" x2="1206" y1="561" y2="549"/>
<text font-family="Dialog" font-size="12" x="1048" y="570">
 gerencia</text>
<text font-family="Dialog" font-size="12" x="949" y="577">
1..*</text>
<text font-family="Dialog" font-size="12" x="953" y="600">
-funcionarios</text>
<text font-family="Dialog" font-size="12" x="1178" y="576">
0..*</text>
<polyline fill="none" points="734,614 662,614 662,382 742,382" stroke="#000000" stroke-width="1"/>
<line fill="#000000" stroke="#000000" stroke-width="1" x1="730" x2="742" y1="389" y2="382"/>
<line fill="#000000" stroke="#000000" stroke-width="1" x1="730" x2="742" y1="375" y2="382"/>
<text font-family="Dialog" font-size="12" x="664" y="498">
 gerencia</text>
<text font-family="Dialog" font-size="12" x="708" y="609">
1..*</text>
<text font-family="Dialog" font-size="12" x="651" y="628">
-responsaveis</text>
<text font-family="Dialog" font-size="12" x="712" y="372">
0..*</text>
</svg>
